<?xml version="1.0" encoding="UTF-8" standalone="no"?>
<svg
   enable-background="new 0 0 32 32"
   id="Glyph"
   version="1.1"
   viewBox="0 0 32 32"
   xml:space="preserve"
   sodipodi:docname="search6.svg"
   inkscape:version="1.2 (dc2aedaf03, 2022-05-15)"
   xmlns:inkscape="http://www.inkscape.org/namespaces/inkscape"
   xmlns:sodipodi="http://sodipodi.sourceforge.net/DTD/sodipodi-0.dtd"
   xmlns="http://www.w3.org/2000/svg"
   xmlns:svg="http://www.w3.org/2000/svg"><defs
     id="defs12" /><sodipodi:namedview
     id="namedview10"
     pagecolor="#ffffff"
     bordercolor="#000000"
     borderopacity="0.25"
     inkscape:showpageshadow="2"
     inkscape:pageopacity="0.0"
     inkscape:pagecheckerboard="0"
     inkscape:deskcolor="#d1d1d1"
     showgrid="false"
     inkscape:zoom="26.15625"
     inkscape:cx="5.2568698"
     inkscape:cy="16.057348"
     inkscape:window-width="1920"
     inkscape:window-height="1017"
     inkscape:window-x="1912"
     inkscape:window-y="-8"
     inkscape:window-maximized="1"
     inkscape:current-layer="Glyph" /><path
     d="M 27.414,24.586 22.337,19.509 C 23.386,17.928 24,16.035 24,14 24,8.486 19.514,4 14,4 8.486,4 4,8.486 4,14 c 0,5.514 4.486,10 10,10 2.035,0 3.928,-0.614 5.509,-1.663 l 5.077,5.077 c 0.78,0.781 2.048,0.781 2.828,0 0.781,-0.781 0.781,-2.047 0,-2.828 z M 7,14 c 0,-3.86 3.14,-7 7,-7 3.86,0 7,3.14 7,7 0,3.86 -3.14,7 -7,7 -3.86,0 -7,-3.14 -7,-7 z"
     id="path288"
     style="display:inline;fill:#e6e6e6" /><path
     style="fill:#b3b3b3;stroke-width:0.0382318"
     d="m 25.367901,27.867321 c -0.157094,-0.0535 -0.389352,-0.172215 -0.516129,-0.263813 -0.126778,-0.0916 -1.381356,-1.318714 -2.787951,-2.726926 l -2.557446,-2.560385 -0.195242,0.124258 c -1.201158,0.764446 -2.562511,1.256822 -4.037537,1.460303 -0.654773,0.09033 -1.951444,0.08956 -2.580645,-0.0015 C 10.458335,23.575749 8.5219621,22.616283 6.9630723,21.060101 5.3375138,19.437365 4.3220629,17.333369 4.0741896,15.074386 4.0154158,14.538753 4.0241271,13.383914 4.0912712,12.809917 4.2940898,11.076073 4.9550756,9.4402328 6.0395566,7.9882043 6.4837433,7.3934762 7.3934762,6.4837433 7.9882043,6.0395566 9.4402328,4.9550756 11.076073,4.2940898 12.809917,4.0912712 c 0.574152,-0.067162 1.72903,-0.075853 2.264469,-0.01704 4.541813,0.4988732 8.189744,4.0491859 8.816414,8.5804878 0.308586,2.231307 -0.202277,4.666469 -1.367493,6.518519 l -0.204455,0.32497 2.644796,2.657109 c 2.820113,2.833243 2.786853,2.795668 2.941905,3.323546 0.07415,0.252449 0.07866,0.754937 0.0091,1.015761 -0.183045,0.686509 -0.728588,1.236098 -1.405955,1.416386 -0.332394,0.08847 -0.806005,0.07033 -1.140814,-0.04369 z M 14.90273,20.951219 c 1.119289,-0.146726 2.244309,-0.585804 3.161786,-1.233998 0.470458,-0.332376 1.320329,-1.182247 1.652705,-1.652705 0.299307,-0.42365 0.695589,-1.177653 0.86768,-1.65093 1.108654,-3.048971 -0.007,-6.4520193 -2.705612,-8.2525331 -1.292852,-0.8626047 -2.896086,-1.2810295 -4.412144,-1.1515166 -0.984427,0.084097 -1.713354,0.2890294 -2.609319,0.733591 -1.3595053,0.6745614 -2.4401373,1.7551934 -3.1146987,3.1146987 -0.3090865,0.62293 -0.4535153,1.021935 -0.5892398,1.627856 -0.4861214,2.170219 0.107948,4.468252 1.5902696,6.151628 1.1010375,1.250376 2.6625349,2.088273 4.3113839,2.313482 0.501933,0.06856 1.326012,0.06875 1.847189,4.27e-4 z"
     id="path1008" /></svg>
